<svg width="15" height="15" viewBox="0 0 15 15" fill="none" xmlns="http://www.w3.org/2000/svg">
<path d="M12.8695 7.8905C12.8995 7.66054 12.922 7.43058 12.922 7.18625C12.922 6.94192 12.8995 6.71196 12.8695 6.482L14.452 5.29627C14.5945 5.18847 14.632 4.99444 14.542 4.83635L13.042 2.3499C12.9745 2.23492 12.847 2.17025 12.712 2.17025C12.667 2.17025 12.622 2.17743 12.5845 2.19181L10.717 2.91043C10.327 2.62298 9.907 2.38584 9.4495 2.20618L9.1645 0.301823C9.142 0.129353 8.9845 0 8.797 0H5.797C5.6095 0 5.452 0.129353 5.4295 0.301823L5.1445 2.20618C4.687 2.38584 4.267 2.63017 3.877 2.91043L2.0095 2.19181C1.9645 2.17743 1.9195 2.17025 1.8745 2.17025C1.747 2.17025 1.6195 2.23492 1.552 2.3499L0.0519987 4.83635C-0.0455013 4.99444 -0.000501227 5.18847 0.141999 5.29627L1.7245 6.482C1.6945 6.71196 1.672 6.9491 1.672 7.18625C1.672 7.4234 1.6945 7.66054 1.7245 7.8905L0.141999 9.07623C-0.000501227 9.18403 -0.0380013 9.37806 0.0519987 9.53615L1.552 12.0226C1.6195 12.1376 1.747 12.2023 1.882 12.2023C1.927 12.2023 1.972 12.1951 2.0095 12.1807L3.877 11.4621C4.267 11.7495 4.687 11.9867 5.1445 12.1663L5.4295 14.0707C5.452 14.2431 5.6095 14.3725 5.797 14.3725H8.797C8.9845 14.3725 9.142 14.2431 9.1645 14.0707L9.4495 12.1663C9.907 11.9867 10.327 11.7423 10.717 11.4621L12.5845 12.1807C12.6295 12.1951 12.6745 12.2023 12.7195 12.2023C12.847 12.2023 12.9745 12.1376 13.042 12.0226L14.542 9.53615C14.632 9.37806 14.5945 9.18403 14.452 9.07623L12.8695 7.8905ZM11.3845 6.66165C11.4145 6.88443 11.422 7.03534 11.422 7.18625C11.422 7.33716 11.407 7.49526 11.3845 7.71085L11.2795 8.52289L11.947 9.02593L12.757 9.62957L12.232 10.4991L11.2795 10.1326L10.4995 9.83079L9.8245 10.3195C9.502 10.5494 9.1945 10.7219 8.887 10.8441L8.092 11.1531L7.972 11.9651L7.822 12.9353H6.772L6.6295 11.9651L6.5095 11.1531L5.7145 10.8441C5.392 10.7147 5.092 10.5494 4.792 10.3338L4.1095 9.83079L3.3145 10.1398L2.362 10.5063L1.837 9.63676L2.647 9.03312L3.3145 8.53008L3.2095 7.71803C3.187 7.49526 3.172 7.32998 3.172 7.18625C3.172 7.04253 3.187 6.87724 3.2095 6.66165L3.3145 5.84961L2.647 5.34657L1.837 4.74293L2.362 3.87339L3.3145 4.23989L4.0945 4.54171L4.7695 4.05304C5.092 3.82309 5.3995 3.65061 5.707 3.52845L6.502 3.21944L6.622 2.40739L6.772 1.43725H7.8145L7.957 2.40739L8.077 3.21944L8.872 3.52845C9.1945 3.6578 9.4945 3.82309 9.7945 4.03867L10.477 4.54171L11.272 4.2327L12.2245 3.8662L12.7495 4.73574L11.947 5.34657L11.2795 5.84961L11.3845 6.66165ZM7.297 4.31175C5.6395 4.31175 4.297 5.59809 4.297 7.18625C4.297 8.77441 5.6395 10.0608 7.297 10.0608C8.9545 10.0608 10.297 8.77441 10.297 7.18625C10.297 5.59809 8.9545 4.31175 7.297 4.31175ZM7.297 8.6235C6.472 8.6235 5.797 7.97674 5.797 7.18625C5.797 6.39576 6.472 5.749 7.297 5.749C8.122 5.749 8.797 6.39576 8.797 7.18625C8.797 7.97674 8.122 8.6235 7.297 8.6235Z" fill="#C2CFE0"/>
</svg>
