<svg width="14" height="15" viewBox="0 0 14 15" fill="none" xmlns="http://www.w3.org/2000/svg">
<path d="M11.2952 10.1589C10.7229 10.1589 10.2108 10.3753 9.81928 10.7144L4.4503 7.72017C4.48795 7.55422 4.51807 7.38827 4.51807 7.21511C4.51807 7.04195 4.48795 6.876 4.4503 6.71005L9.75904 3.74464C10.1657 4.1054 10.7003 4.32907 11.2952 4.32907C12.5452 4.32907 13.5542 3.36224 13.5542 2.16453C13.5542 0.966825 12.5452 0 11.2952 0C10.0452 0 9.03614 0.966825 9.03614 2.16453C9.03614 2.3377 9.06627 2.50364 9.10392 2.66959L3.79518 5.635C3.38855 5.27425 2.85392 5.05058 2.25904 5.05058C1.00904 5.05058 0 6.0174 0 7.21511C0 8.41282 1.00904 9.37964 2.25904 9.37964C2.85392 9.37964 3.38855 9.15598 3.79518 8.79522L9.15663 11.7967C9.11898 11.9482 9.09639 12.107 9.09639 12.2657C9.09639 13.4273 10.0828 14.3725 11.2952 14.3725C12.5075 14.3725 13.494 13.4273 13.494 12.2657C13.494 11.1041 12.5075 10.1589 11.2952 10.1589ZM11.2952 1.44302C11.7093 1.44302 12.0482 1.7677 12.0482 2.16453C12.0482 2.56136 11.7093 2.88604 11.2952 2.88604C10.881 2.88604 10.5422 2.56136 10.5422 2.16453C10.5422 1.7677 10.881 1.44302 11.2952 1.44302ZM2.25904 7.93662C1.84488 7.93662 1.50602 7.61194 1.50602 7.21511C1.50602 6.81828 1.84488 6.4936 2.25904 6.4936C2.67319 6.4936 3.01205 6.81828 3.01205 7.21511C3.01205 7.61194 2.67319 7.93662 2.25904 7.93662ZM11.2952 13.0016C10.881 13.0016 10.5422 12.6769 10.5422 12.2801C10.5422 11.8833 10.881 11.5586 11.2952 11.5586C11.7093 11.5586 12.0482 11.8833 12.0482 12.2801C12.0482 12.6769 11.7093 13.0016 11.2952 13.0016Z" fill="#C2CFE0"/>
</svg>
